<svg xmlns="http://www.w3.org/2000/svg" xmlns:xlink="http://www.w3.org/1999/xlink" width="378" zoomAndPan="magnify" viewBox="0 0 283.5 283.500005" height="378" preserveAspectRatio="xMidYMid meet" version="1.0"><defs><clipPath id="71843a0700"><path d="M 0.300781 0.652344 L 134.332031 0.652344 L 134.332031 124.199219 L 0.300781 124.199219 Z M 0.300781 0.652344 " clip-rule="nonzero"/></clipPath><clipPath id="dea0ab68e3"><rect x="0" width="228" y="0" height="233"/></clipPath></defs><g transform="matrix(1, 0, 0, 1, 28, 33)"><g clip-path="url(#dea0ab68e3)"><g clip-path="url(#71843a0700)"><path fill="#000000" d="M 122.621094 68.726562 C 121 68.8125 119.371094 68.707031 117.75 68.757812 C 116.964844 68.785156 116.714844 68.511719 116.75 67.792969 C 116.914062 64.238281 116.875 60.683594 116.757812 57.128906 C 116.730469 56.339844 117.003906 56.101562 117.832031 56.117188 C 121.226562 56.175781 124.621094 56.164062 128.015625 56.175781 C 129.609375 56.183594 131.046875 56.625 132.296875 57.589844 C 132.894531 58.046875 133.476562 58.53125 134.109375 59.039062 C 134.578125 56.949219 134.277344 53.292969 133.433594 51.171875 C 131.921875 47.375 128.675781 43.742188 122.824219 43.988281 C 120.542969 44.085938 118.253906 43.988281 115.96875 44.019531 C 115.28125 44.023438 114.90625 43.839844 114.734375 43.152344 C 113.902344 39.8125 112.851562 36.535156 111.496094 33.351562 C 106.085938 20.644531 96.960938 11.390625 83.800781 5.878906 C 83.398438 5.6875 82.933594 5.632812 82.546875 5.398438 C 74.871094 2.398438 66.835938 0.921875 58.605469 0.78125 C 46.5 0.578125 34.386719 0.703125 22.273438 0.703125 C 19.359375 0.699219 16.445312 0.75 13.527344 0.777344 C 13.046875 0.78125 12.332031 0.617188 12.90625 1.460938 C 15.910156 5.902344 17.183594 10.871094 17.589844 16.0625 C 18.296875 25.035156 17.726562 34.027344 17.867188 43.007812 C 17.878906 43.800781 17.542969 44.050781 16.753906 44.035156 C 14.382812 43.996094 12.007812 43.929688 9.640625 44.003906 C 6.449219 44.109375 3.375 44.003906 1.042969 41.460938 C 0.710938 41.101562 0.394531 41.148438 0.367188 41.746094 C 0.214844 44.945312 0.476562 48.070312 2.1875 50.914062 C 4.230469 54.3125 7.164062 56.308594 11.414062 56.183594 C 13.199219 56.132812 14.988281 56.191406 16.769531 56.121094 C 17.625 56.082031 17.863281 56.40625 17.859375 57.160156 C 17.84375 60.671875 17.824219 64.1875 17.871094 67.699219 C 17.882812 68.628906 17.488281 68.878906 16.617188 68.863281 C 13.921875 68.820312 11.214844 68.714844 8.523438 68.8125 C 5.480469 68.929688 2.855469 68.203125 0.746094 66.023438 C 0.714844 65.988281 0.601562 66.019531 0.527344 66.019531 C -0.164062 69.304688 0.773438 73.742188 2.703125 76.449219 C 4.824219 79.429688 7.65625 81.078125 11.507812 80.953125 C 13.214844 80.898438 14.925781 80.992188 16.625 80.917969 C 17.660156 80.867188 17.921875 81.25 17.878906 82.167969 C 17.816406 83.5625 17.875 84.960938 17.867188 86.359375 C 17.8125 94.261719 18.289062 102.171875 17.550781 110.0625 C 17.105469 114.792969 15.9375 119.347656 13.003906 123.316406 C 12.863281 123.503906 12.617188 123.703125 12.738281 123.945312 C 12.925781 124.324219 13.332031 124.140625 13.632812 124.140625 C 27.0625 124.152344 40.492188 124.097656 53.921875 124.183594 C 63.183594 124.242188 72.253906 123.273438 81.019531 120.265625 C 85.703125 118.65625 90.105469 116.542969 94.035156 113.585938 C 94.40625 113.378906 94.667969 113.019531 95.097656 112.898438 C 99.332031 109.984375 102.828125 106.382812 105.789062 102.296875 C 110.246094 96.152344 113.015625 89.300781 114.753906 82.039062 C 114.941406 81.265625 115.226562 80.910156 116.152344 80.921875 C 119.933594 80.980469 123.71875 80.964844 127.503906 80.941406 C 129.640625 80.925781 131.488281 81.574219 133.085938 82.945312 C 133.390625 83.207031 133.601562 83.695312 134.253906 83.609375 C 134.3125 81.054688 134.496094 78.496094 133.480469 76.054688 C 131.589844 71.53125 128.371094 68.414062 122.621094 68.726562 Z M 35.019531 7.703125 C 35.019531 6.949219 35.152344 6.496094 36.101562 6.519531 C 44.316406 6.742188 52.550781 6.183594 60.75 7.015625 C 64.90625 7.4375 68.921875 8.4375 72.792969 9.96875 C 73.652344 10.316406 74.507812 10.671875 75.292969 11.167969 C 80.34375 13.828125 84.382812 17.480469 87.574219 22.117188 C 91.917969 28.429688 93.835938 35.511719 95.304688 42.78125 C 95.5 43.753906 95.148438 44.046875 94.148438 44.046875 C 74.835938 44.019531 55.53125 44.015625 36.222656 44.035156 C 35.285156 44.035156 35 43.777344 35.003906 42.886719 C 35.03125 31.160156 35.03125 19.433594 35.019531 7.703125 Z M 95.144531 82.550781 C 93.878906 89.65625 91.542969 96.386719 87.523438 102.523438 C 85.972656 105.273438 83.792969 107.523438 81.382812 109.582031 C 79.464844 111.21875 77.359375 112.59375 74.984375 113.5625 C 72.074219 114.824219 69.144531 116.039062 66.027344 116.789062 C 60.707031 118.070312 55.289062 118.378906 49.832031 118.359375 C 45.339844 118.339844 40.847656 118.335938 36.355469 118.386719 C 35.308594 118.398438 35.007812 118.070312 35.007812 117.082031 C 35.035156 105.464844 35.039062 93.847656 34.992188 82.230469 C 34.988281 81.160156 35.3125 80.902344 36.398438 80.902344 C 55.445312 80.929688 74.488281 80.914062 93.535156 80.910156 C 95.425781 80.910156 95.433594 80.917969 95.144531 82.550781 Z M 96.710938 67.507812 C 96.71875 68.496094 96.320312 68.800781 95.300781 68.800781 C 85.457031 68.769531 75.609375 68.78125 65.761719 68.78125 L 65.761719 68.828125 C 55.90625 68.828125 46.046875 68.820312 36.191406 68.84375 C 35.320312 68.847656 35.007812 68.609375 35.011719 67.769531 C 35.039062 64.253906 35.039062 60.742188 35.007812 57.226562 C 34.996094 56.324219 35.375 56.070312 36.273438 56.074219 C 53.941406 56.105469 71.609375 56.113281 89.277344 56.125 C 91.222656 56.125 93.167969 56.144531 95.109375 56.070312 C 96.277344 56.027344 96.75 56.390625 96.726562 57.5625 C 96.664062 60.878906 96.679688 64.191406 96.710938 67.507812 Z M 96.710938 67.507812 " fill-opacity="1" fill-rule="nonzero"/></g></g></g></svg>
